<svg width="114" height="114" viewBox="0 0 114 114" fill="none" xmlns="http://www.w3.org/2000/svg">
<path d="M95 61.75H19C16.3875 61.75 14.25 63.8875 14.25 66.5V95C14.25 97.6125 16.3875 99.75 19 99.75H95C97.6125 99.75 99.75 97.6125 99.75 95V66.5C99.75 63.8875 97.6125 61.75 95 61.75ZM33.25 90.25C28.025 90.25 23.75 85.975 23.75 80.75C23.75 75.525 28.025 71.25 33.25 71.25C38.475 71.25 42.75 75.525 42.75 80.75C42.75 85.975 38.475 90.25 33.25 90.25ZM95 14.25H19C16.3875 14.25 14.25 16.3875 14.25 19V47.5C14.25 50.1125 16.3875 52.25 19 52.25H95C97.6125 52.25 99.75 50.1125 99.75 47.5V19C99.75 16.3875 97.6125 14.25 95 14.25ZM33.25 42.75C28.025 42.75 23.75 38.475 23.75 33.25C23.75 28.025 28.025 23.75 33.25 23.75C38.475 23.75 42.75 28.025 42.75 33.25C42.75 38.475 38.475 42.75 33.25 42.75Z" fill="#A81FD1"/>
</svg>
