<svg width="32" height="32" viewBox="0 0 32 32" fill="none" xmlns="http://www.w3.org/2000/svg">
<path d="M0 2.34708C0 1.08689 1.05925 0.0639954 2.365 0.0639954H29.635C30.9412 0.0639954 32 1.08689 32 2.34708V29.6533C32 30.9138 30.9412 31.936 29.635 31.936H2.365C1.05938 31.936 0 30.914 0 29.6537V2.3467V2.34708Z" fill="white"/>
<path d="M9.7245 26.7366V12.3877H4.936V26.7366H9.725H9.7245ZM7.33125 10.429C9.00075 10.429 10.0401 9.32715 10.0401 7.95018C10.0089 6.54184 9.00075 5.47076 7.363 5.47076C5.72412 5.47076 4.65375 6.54184 4.65375 7.95006C4.65375 9.32703 5.69275 10.4289 7.29987 10.4289H7.33087L7.33125 10.429ZM12.375 26.7366H17.1631V18.7244C17.1631 18.2961 17.1944 17.8667 17.3209 17.5608C17.6669 16.7037 18.4548 15.8163 19.7779 15.8163C21.5101 15.8163 22.2035 17.1321 22.2035 19.0612V26.7366H26.9915V18.5094C26.9915 14.1022 24.6295 12.0513 21.4791 12.0513C18.8962 12.0513 17.7619 13.4892 17.1316 14.4685H17.1635V12.3882H12.3752C12.4377 13.7343 12.3749 26.7371 12.3749 26.7371L12.375 26.7366Z" fill="#A81FD1"/>
</svg>
