<svg width="1457" height="691" viewBox="0 0 1457 691" fill="none" xmlns="http://www.w3.org/2000/svg">
<path d="M727.5 690C903.955 690 1047 546.955 1047 370.5C1047 194.045 903.955 51 727.5 51C551.045 51 408 194.045 408 370.5C408 546.955 551.045 690 727.5 690Z" fill="#EDF683"/>
<path d="M1457 689H0C0 689 295.821 577.748 731.531 579.011C733.976 579.011 736.421 579.027 738.866 579.043C747.558 579.093 756.3 579.186 765.092 579.322C771.976 579.437 778.887 579.579 785.825 579.748C788.823 579.814 791.821 579.896 794.835 579.978C796.041 580.011 797.23 580.043 798.419 580.076C801.183 580.158 803.963 580.24 806.759 580.338C812.001 580.502 817.26 580.699 822.535 580.896C827.157 581.076 831.802 581.273 836.469 581.486C838.244 581.551 840.053 581.633 841.845 581.732C850.302 582.109 858.793 582.546 867.317 583.043C869.293 583.158 871.269 583.273 873.262 583.387C875.992 583.535 878.738 583.715 881.468 583.879C885.086 584.108 888.703 584.343 892.32 584.584C897.026 584.895 901.716 585.223 906.421 585.567C916.269 586.272 926.172 587.048 936.131 587.895C943.533 588.502 950.952 589.174 958.404 589.862C961.57 590.157 964.746 590.463 967.934 590.78C972.807 591.239 977.692 591.725 982.587 592.239C985.702 592.567 988.834 592.895 991.949 593.222C995.717 593.616 999.469 594.026 1003.24 594.452C1006.99 594.878 1010.77 595.304 1014.54 595.747C1018.33 596.189 1022.11 596.637 1025.9 597.091C1029.7 597.55 1033.48 598.009 1037.28 598.501C1041.03 598.959 1044.79 599.451 1048.55 599.943C1064.6 602.025 1080.76 604.292 1097.04 606.746C1100.15 607.205 1103.3 607.68 1106.43 608.172C1109.66 608.663 1112.91 609.172 1116.16 609.696C1120.68 610.401 1125.22 611.133 1129.78 611.893C1133.68 612.532 1137.58 613.171 1141.5 613.843C1145.03 614.434 1148.6 615.04 1152.15 615.663C1152.52 615.729 1152.89 615.794 1153.26 615.86C1157.18 616.532 1161.11 617.236 1165.03 617.941C1168.97 618.646 1172.92 619.368 1176.85 620.089C1180.81 620.81 1184.76 621.548 1188.71 622.302C1192.68 623.056 1196.63 623.81 1200.6 624.58C1203.7 625.187 1206.78 625.793 1209.88 626.4C1211.42 626.711 1212.96 627.006 1214.5 627.318C1217.82 627.99 1221.14 628.667 1224.48 629.35C1228.47 630.17 1232.46 630.995 1236.46 631.825C1236.91 631.924 1237.34 632.022 1237.8 632.104C1243.99 633.415 1250.2 634.748 1256.4 636.104C1257.24 636.284 1258.09 636.481 1258.95 636.661C1262.2 637.366 1265.45 638.087 1268.7 638.825C1271.94 639.562 1275.19 640.283 1278.46 641.038C1278.59 641.057 1278.73 641.084 1278.86 641.119C1283.47 642.169 1288.06 643.234 1292.68 644.332C1294.97 644.857 1297.27 645.398 1299.56 645.955C1302.71 646.693 1305.84 647.447 1308.99 648.217C1311.05 648.725 1313.11 649.233 1315.19 649.742C1316.71 650.086 1318.23 650.463 1319.76 650.856C1322.97 651.627 1326.19 652.424 1329.42 653.249C1332.42 654.003 1335.42 654.763 1338.41 655.528C1338.5 655.542 1338.58 655.564 1338.66 655.593C1339.38 655.774 1340.09 655.954 1340.81 656.134C1343 656.692 1345.2 657.265 1347.41 657.839C1349.67 658.429 1351.95 659.019 1354.22 659.626C1356.22 660.15 1358.23 660.675 1360.22 661.216C1360.28 661.217 1360.33 661.228 1360.39 661.249C1360.67 661.314 1360.96 661.396 1361.24 661.478C1363.55 662.085 1365.86 662.691 1368.17 663.33C1370.48 663.953 1372.8 664.576 1375.12 665.215C1375.36 665.265 1375.59 665.33 1375.83 665.396C1377.62 665.871 1379.41 666.363 1381.2 666.871C1381.2 666.871 1381.2 666.855 1381.22 666.871C1382.24 667.133 1383.26 667.428 1384.28 667.707C1387.01 668.461 1389.74 669.22 1392.47 669.985C1394.23 670.477 1396.01 670.969 1397.77 671.477C1402.67 672.87 1407.6 674.264 1412.52 675.69C1417.44 677.116 1422.38 678.558 1427.31 680.017C1430.27 680.886 1433.22 681.771 1436.18 682.673C1438.96 683.492 1441.74 684.328 1444.52 685.181C1448.68 686.443 1452.85 687.705 1457 689Z" fill="#F7F7F7"/>
<path d="M142 549L126 667H158L142 549Z" fill="#3F3D56"/>
<path d="M125.5 559L109 676H142L125.5 559Z" fill="#3F3D56"/>
<path d="M106.5 559L91 676H122L106.5 559Z" fill="#3F3D56"/>
<path d="M1241 555L1225 673H1257L1241 555Z" fill="#3F3D56"/>
<path d="M1262 555L1247 673H1277L1262 555Z" fill="#3F3D56"/>
<path d="M1292 680H1266L1266.87 673.4L1272.35 631.721L1272.52 630.285L1279 581L1286.09 635.037L1289.52 661.157L1292 680Z" fill="#3F3D56"/>
<path d="M1312 680H1287L1289.38 661.157L1292.48 636.671L1299.5 581L1307 640.466V640.482L1309.2 657.857L1312 680Z" fill="#3F3D56"/>
<path d="M1335 680H1307L1309.93 657.773L1312.09 641.459L1321 574L1330.55 646.246L1331.63 654.461L1335 680Z" fill="#3F3D56"/>
<path d="M1357 680H1329L1332.37 654.461L1333.38 646.792L1343 574L1352.81 648.316L1353.34 652.192L1357 680Z" fill="#3F3D56"/>
<path d="M1370 680H1349L1352.63 651.635L1353.1 647.987L1359.5 598L1366.88 655.718L1369.9 679.297L1370 680Z" fill="#3F3D56"/>
<path d="M1393 680H1370L1370.11 679.297L1373.17 657.408L1381.5 598L1390.49 662.111L1393 680Z" fill="#3F3D56"/>
<path d="M1455.99 691C1043.93 562.33 670.294 569.185 429.409 597.594C168.441 628.371 2.84273 690.345 1.20115 690.968L0 687.885C1.64647 687.262 167.634 625.14 429.012 594.315C582.76 576.204 737.886 572.29 892.372 582.623C1084.15 595.427 1273.7 630.754 1457 687.853L1455.99 691Z" fill="#3F3D56"/>
<path d="M408 621C408 621 409.163 597.488 433 600.221L408 621Z" fill="#3F3D56"/>
<path d="M794.513 654.539C988.034 654.539 1144.91 644.918 1144.91 633.05C1144.91 621.182 988.034 611.562 794.513 611.562C600.993 611.562 444.113 621.182 444.113 633.05C444.113 644.918 600.993 654.539 794.513 654.539Z" fill="#3F3D56"/>
<path opacity="0.1" d="M794.513 646.914C959.35 646.914 1092.98 640.552 1092.98 632.704C1092.98 624.856 959.35 618.493 794.513 618.493C629.677 618.493 496.05 624.856 496.05 632.704C496.05 640.552 629.677 646.914 794.513 646.914Z" fill="black"/>
<path d="M1059.74 221.297H538.984V630.278H1059.74V221.297Z" fill="#3F3D56"/>
<path d="M793.436 277.188H664.967C664.762 277.188 664.559 277.148 664.369 277.07C664.18 276.992 664.008 276.877 663.862 276.732C663.717 276.587 663.602 276.415 663.524 276.225C663.445 276.036 663.405 275.832 663.405 275.627C663.405 275.422 663.445 275.219 663.524 275.029C663.602 274.84 663.717 274.667 663.862 274.522C664.008 274.377 664.18 274.262 664.369 274.184C664.559 274.106 664.762 274.066 664.967 274.066H793.436C793.849 274.067 794.245 274.232 794.536 274.525C794.828 274.817 794.992 275.214 794.992 275.627C794.992 276.04 794.828 276.437 794.536 276.729C794.245 277.022 793.849 277.187 793.436 277.188Z" fill="#F7F7F7"/>
<path d="M934.066 294.355H732.008C731.594 294.355 731.198 294.191 730.906 293.898C730.613 293.605 730.449 293.208 730.449 292.794C730.449 292.38 730.613 291.983 730.906 291.691C731.198 291.398 731.594 291.234 732.008 291.234H934.066C934.271 291.234 934.474 291.274 934.663 291.352C934.852 291.431 935.024 291.546 935.169 291.691C935.313 291.836 935.428 292.008 935.507 292.197C935.585 292.386 935.625 292.589 935.625 292.794C935.625 292.999 935.585 293.202 935.507 293.392C935.428 293.581 935.313 293.753 935.169 293.898C935.024 294.043 934.852 294.158 934.663 294.236C934.474 294.315 934.271 294.355 934.066 294.355Z" fill="#F7F7F7"/>
<path d="M794.06 311.522H665.591C665.177 311.522 664.781 311.358 664.488 311.065C664.196 310.773 664.031 310.376 664.031 309.962C664.031 309.548 664.196 309.151 664.488 308.858C664.781 308.566 665.177 308.401 665.591 308.401H794.06C794.473 308.401 794.87 308.566 795.162 308.858C795.455 309.151 795.619 309.548 795.619 309.962C795.619 310.376 795.455 310.773 795.162 311.065C794.87 311.358 794.473 311.522 794.06 311.522Z" fill="#F7F7F7"/>
<path d="M934.066 311.834H805.597C805.184 311.834 804.787 311.67 804.495 311.377C804.202 311.085 804.038 310.688 804.038 310.274C804.038 309.86 804.202 309.463 804.495 309.17C804.787 308.878 805.184 308.713 805.597 308.713H934.066C934.48 308.713 934.876 308.878 935.169 309.17C935.461 309.463 935.625 309.86 935.625 310.274C935.625 310.688 935.461 311.085 935.169 311.377C934.876 311.67 934.48 311.834 934.066 311.834Z" fill="#F7F7F7"/>
<path d="M794.372 328.69H665.902C665.489 328.69 665.092 328.525 664.8 328.233C664.508 327.94 664.343 327.543 664.343 327.129C664.343 326.715 664.508 326.318 664.8 326.025C665.092 325.733 665.489 325.568 665.902 325.568H794.372C794.785 325.568 795.182 325.733 795.474 326.025C795.766 326.318 795.931 326.715 795.931 327.129C795.931 327.543 795.766 327.94 795.474 328.233C795.182 328.525 794.785 328.69 794.372 328.69Z" fill="#F7F7F7"/>
<path d="M794.683 345.857H666.214C665.801 345.857 665.404 345.692 665.112 345.4C664.819 345.107 664.655 344.71 664.655 344.296C664.655 343.882 664.819 343.485 665.112 343.193C665.404 342.9 665.801 342.736 666.214 342.736H794.683C795.097 342.736 795.493 342.9 795.786 343.193C796.078 343.485 796.242 343.882 796.242 344.296C796.242 344.71 796.078 345.107 795.786 345.4C795.493 345.692 795.097 345.857 794.683 345.857Z" fill="#F7F7F7"/>
<path d="M852.993 277.5H816.199C815.785 277.5 815.389 277.335 815.096 277.043C814.804 276.75 814.64 276.353 814.64 275.939C814.64 275.525 814.804 275.128 815.096 274.836C815.389 274.543 815.785 274.379 816.199 274.379H852.993C853.407 274.379 853.804 274.543 854.096 274.836C854.388 275.128 854.553 275.525 854.553 275.939C854.553 276.353 854.388 276.75 854.096 277.043C853.804 277.335 853.407 277.5 852.993 277.5Z" fill="#F7F7F7"/>
<path d="M852.993 328.69H816.199C815.785 328.69 815.389 328.525 815.096 328.233C814.804 327.94 814.64 327.543 814.64 327.129C814.64 326.715 814.804 326.318 815.096 326.025C815.389 325.733 815.785 325.568 816.199 325.568H852.993C853.407 325.568 853.804 325.733 854.096 326.025C854.388 326.318 854.553 326.715 854.553 327.129C854.553 327.543 854.388 327.94 854.096 328.233C853.804 328.525 853.407 328.69 852.993 328.69Z" fill="#F7F7F7"/>
<path d="M852.993 345.545H816.199C815.994 345.545 815.791 345.505 815.601 345.427C815.412 345.349 815.239 345.234 815.094 345.089C814.949 344.944 814.834 344.772 814.755 344.582C814.677 344.393 814.636 344.189 814.636 343.984C814.636 343.779 814.677 343.576 814.755 343.386C814.834 343.197 814.949 343.024 815.094 342.88C815.239 342.735 815.412 342.62 815.601 342.541C815.791 342.463 815.994 342.423 816.199 342.424H852.993C853.198 342.423 853.402 342.463 853.591 342.541C853.781 342.62 853.953 342.735 854.098 342.88C854.243 343.024 854.358 343.197 854.437 343.386C854.515 343.576 854.556 343.779 854.556 343.984C854.556 344.189 854.515 344.393 854.437 344.582C854.358 344.772 854.243 344.944 854.098 345.089C853.953 345.234 853.781 345.349 853.591 345.427C853.402 345.505 853.198 345.545 852.993 345.545Z" fill="#F7F7F7"/>
<path d="M914.733 345.545H877.939C877.526 345.544 877.13 345.379 876.839 345.087C876.547 344.794 876.383 344.398 876.383 343.984C876.383 343.571 876.547 343.174 876.839 342.882C877.13 342.589 877.526 342.424 877.939 342.424H914.733C914.938 342.423 915.142 342.463 915.331 342.541C915.521 342.62 915.693 342.735 915.838 342.88C915.983 343.024 916.098 343.197 916.177 343.386C916.255 343.576 916.296 343.779 916.296 343.984C916.296 344.189 916.255 344.393 916.177 344.582C916.098 344.772 915.983 344.944 915.838 345.089C915.693 345.234 915.521 345.349 915.331 345.427C915.142 345.505 914.938 345.545 914.733 345.545Z" fill="#F7F7F7"/>
<path d="M701.45 294.355H664.655C664.242 294.355 663.845 294.191 663.553 293.898C663.26 293.605 663.096 293.208 663.096 292.794C663.096 292.38 663.26 291.983 663.553 291.691C663.845 291.398 664.242 291.234 664.655 291.234H701.45C701.863 291.234 702.26 291.398 702.552 291.691C702.845 291.983 703.009 292.38 703.009 292.794C703.009 293.208 702.845 293.605 702.552 293.898C702.26 294.191 701.863 294.355 701.45 294.355Z" fill="#F7F7F7"/>
<path d="M793.592 530.015H665.123C664.709 530.015 664.313 529.851 664.02 529.558C663.728 529.266 663.564 528.869 663.564 528.455C663.564 528.041 663.728 527.644 664.02 527.351C664.313 527.058 664.709 526.894 665.123 526.894H793.592C794.006 526.894 794.402 527.058 794.695 527.351C794.987 527.644 795.151 528.041 795.151 528.455C795.151 528.869 794.987 529.266 794.695 529.558C794.402 529.851 794.006 530.015 793.592 530.015Z" fill="#F7F7F7"/>
<path d="M792.968 564.35H664.499C664.086 564.35 663.689 564.186 663.397 563.893C663.104 563.6 662.94 563.203 662.94 562.789C662.94 562.375 663.104 561.978 663.397 561.686C663.689 561.393 664.086 561.229 664.499 561.229H792.968C793.382 561.229 793.778 561.393 794.071 561.686C794.363 561.978 794.527 562.375 794.527 562.789C794.527 563.203 794.363 563.6 794.071 563.893C793.778 564.186 793.382 564.35 792.968 564.35Z" fill="#F7F7F7"/>
<path d="M793.28 581.517H664.811C664.606 581.517 664.403 581.477 664.214 581.399C664.024 581.321 663.852 581.206 663.707 581.061C663.561 580.916 663.446 580.744 663.368 580.554C663.289 580.365 663.249 580.162 663.249 579.956C663.249 579.751 663.289 579.548 663.368 579.358C663.446 579.169 663.561 578.997 663.707 578.852C663.852 578.707 664.024 578.592 664.214 578.514C664.403 578.435 664.606 578.395 664.811 578.396H793.28C793.485 578.395 793.688 578.435 793.878 578.514C794.068 578.592 794.24 578.707 794.385 578.852C794.53 578.997 794.645 579.169 794.724 579.358C794.802 579.548 794.843 579.751 794.843 579.956C794.843 580.162 794.802 580.365 794.724 580.554C794.645 580.744 794.53 580.916 794.385 581.061C794.24 581.206 794.068 581.321 793.878 581.399C793.688 581.477 793.485 581.517 793.28 581.517Z" fill="#F7F7F7"/>
<path d="M848.16 564.662H811.366C810.952 564.662 810.556 564.498 810.263 564.205C809.971 563.912 809.807 563.515 809.807 563.101C809.807 562.687 809.971 562.29 810.263 561.998C810.556 561.705 810.952 561.541 811.366 561.541H848.16C848.574 561.541 848.97 561.705 849.263 561.998C849.555 562.29 849.719 562.687 849.719 563.101C849.719 563.515 849.555 563.912 849.263 564.205C848.97 564.498 848.574 564.662 848.16 564.662Z" fill="#F7F7F7"/>
<path d="M848.16 581.517H811.366C810.952 581.517 810.556 581.353 810.263 581.06C809.971 580.767 809.807 580.37 809.807 579.956C809.807 579.543 809.971 579.146 810.263 578.853C810.556 578.56 810.952 578.396 811.366 578.396H848.16C848.574 578.396 848.97 578.56 849.263 578.853C849.555 579.146 849.719 579.543 849.719 579.956C849.719 580.37 849.555 580.767 849.263 581.06C848.97 581.353 848.574 581.517 848.16 581.517Z" fill="#F7F7F7"/>
<path d="M909.9 564.662H873.106C872.692 564.662 872.296 564.498 872.003 564.205C871.711 563.912 871.547 563.515 871.547 563.101C871.547 562.687 871.711 562.29 872.003 561.998C872.296 561.705 872.692 561.541 873.106 561.541H909.9C910.314 561.541 910.71 561.705 911.003 561.998C911.295 562.29 911.459 562.687 911.459 563.101C911.459 563.515 911.295 563.912 911.003 564.205C910.71 564.498 910.314 564.662 909.9 564.662Z" fill="#F7F7F7"/>
<path d="M934.222 547.183H732.164C731.75 547.183 731.354 547.018 731.061 546.726C730.769 546.433 730.605 546.036 730.605 545.622C730.605 545.208 730.769 544.811 731.061 544.518C731.354 544.226 731.75 544.061 732.164 544.061H934.222C934.636 544.061 935.032 544.226 935.325 544.518C935.617 544.811 935.781 545.208 935.781 545.622C935.781 546.036 935.617 546.433 935.325 546.726C935.032 547.018 934.636 547.183 934.222 547.183Z" fill="#F7F7F7"/>
<path d="M701.606 547.183H664.811C664.398 547.183 664.001 547.018 663.709 546.726C663.416 546.433 663.252 546.036 663.252 545.622C663.252 545.208 663.416 544.811 663.709 544.518C664.001 544.226 664.398 544.061 664.811 544.061H701.606C702.019 544.061 702.416 544.226 702.708 544.518C703 544.811 703.165 545.208 703.165 545.622C703.165 546.036 703 546.433 702.708 546.726C702.416 547.018 702.019 547.183 701.606 547.183Z" fill="#F7F7F7"/>
<path d="M934.222 598.997H732.164C731.959 598.997 731.756 598.957 731.566 598.879C731.377 598.801 731.204 598.686 731.059 598.541C730.914 598.396 730.799 598.224 730.72 598.034C730.642 597.845 730.601 597.641 730.601 597.436C730.601 597.231 730.642 597.028 730.72 596.838C730.799 596.648 730.914 596.476 731.059 596.331C731.204 596.186 731.377 596.071 731.566 595.993C731.756 595.915 731.959 595.875 732.164 595.875H934.222C934.636 595.875 935.032 596.04 935.325 596.332C935.617 596.625 935.781 597.022 935.781 597.436C935.781 597.85 935.617 598.247 935.325 598.54C935.032 598.832 934.636 598.997 934.222 598.997Z" fill="#F7F7F7"/>
<path d="M701.606 598.997H664.811C664.606 598.997 664.403 598.957 664.214 598.879C664.024 598.801 663.852 598.686 663.707 598.541C663.561 598.396 663.446 598.224 663.368 598.034C663.289 597.845 663.249 597.641 663.249 597.436C663.249 597.231 663.289 597.028 663.368 596.838C663.446 596.648 663.561 596.476 663.707 596.331C663.852 596.186 664.024 596.071 664.214 595.993C664.403 595.915 664.606 595.875 664.811 595.875H701.606C701.811 595.875 702.014 595.915 702.203 595.993C702.393 596.071 702.565 596.186 702.71 596.331C702.855 596.476 702.97 596.648 703.049 596.838C703.128 597.028 703.168 597.231 703.168 597.436C703.168 597.641 703.128 597.845 703.049 598.034C702.97 598.224 702.855 598.396 702.71 598.541C702.565 598.686 702.393 598.801 702.203 598.879C702.014 598.957 701.811 598.997 701.606 598.997Z" fill="#F7F7F7"/>
<path d="M762.566 387.059L712.675 436.376L762.566 485.692L773.791 474.456L736.062 436.688L774.103 398.607L762.566 387.059Z" fill="#A81FD1"/>
<path d="M836.155 387.059L886.046 436.376L836.155 485.692L824.93 474.456L862.66 436.688L824.618 398.607L836.155 387.059Z" fill="#A81FD1"/>
<path d="M552.834 237.933C556.276 237.933 559.067 235.14 559.067 231.694C559.067 228.249 556.276 225.456 552.834 225.456C549.392 225.456 546.602 228.249 546.602 231.694C546.602 235.14 549.392 237.933 552.834 237.933Z" fill="#A81FD1"/>
<path d="M569.454 237.933C572.896 237.933 575.686 235.14 575.686 231.694C575.686 228.249 572.896 225.456 569.454 225.456C566.012 225.456 563.222 228.249 563.222 231.694C563.222 235.14 566.012 237.933 569.454 237.933Z" fill="#A81FD1"/>
<path d="M586.074 237.933C589.516 237.933 592.306 235.14 592.306 231.694C592.306 228.249 589.516 225.456 586.074 225.456C582.632 225.456 579.841 228.249 579.841 231.694C579.841 235.14 582.632 237.933 586.074 237.933Z" fill="#A81FD1"/>
<path opacity="0.1" d="M1059.74 242.092H538.984V244.172H1059.74V242.092Z" fill="black"/>
<path d="M1394 314.974C1394 453.598 1311.62 502 1210 502C1108.38 502 1026 453.598 1026 314.974C1026 176.351 1210 0 1210 0C1210 0 1394 176.351 1394 314.974Z" fill="#FFE7AB"/>
<path d="M1202.83 490.7L1204.71 374.948L1283 231.747L1205 356.79L1205.85 304.743L1259.81 201.141L1206.07 290.971L1207.59 197.363L1265.37 114.88L1207.83 182.643L1208.78 11L1202.81 238.225L1203.3 228.852L1144.56 138.952L1202.36 246.846L1196.89 351.39L1196.72 348.614L1129 254.008L1196.52 358.417L1195.83 371.491L1195.71 371.688L1195.77 372.762L1181.88 638H1200.43L1202.66 501L1270.01 396.844L1202.83 490.7Z" fill="#3F3D56"/>
<path d="M462.758 299.999L458.079 302.342C458.079 302.342 432.732 365.982 441.311 381.209C449.89 396.436 476.796 424.937 476.796 424.937L481.865 410.491L461.133 365.488L462.758 299.999Z" fill="#A81FD1"/>
<path opacity="0.1" d="M462.758 299.999L458.079 302.342C458.079 302.342 432.732 365.982 441.311 381.209C449.89 396.436 476.796 424.937 476.796 424.937L481.865 410.491L461.133 365.488L462.758 299.999Z" fill="black"/>
<path d="M467.827 618.201C467.827 618.201 461.198 633.428 464.708 634.599C468.217 635.771 472.507 635.771 476.796 635.771C481.086 635.771 486.155 634.209 486.935 632.647C487.715 631.085 483.815 620.934 483.815 620.934L467.827 618.201Z" fill="#575A89"/>
<path d="M557.126 626.01C557.126 626.01 552.836 639.675 554.786 640.456C556.736 641.237 562.975 644.751 566.484 643.579C569.994 642.408 575.453 639.675 576.623 638.504C577.793 637.332 576.623 631.086 576.623 631.086L571.164 623.277L557.126 626.01Z" fill="#575A89"/>
<path d="M480.306 422.985L474.716 424.937C474.716 424.937 473.287 438.212 474.846 442.897C476.406 447.582 479.916 481.55 477.966 488.578C476.016 495.606 477.186 506.928 477.186 506.928C477.186 506.928 465.488 545.191 467.827 553.39C470.167 561.589 469.777 573.302 467.437 579.158C465.098 585.015 463.148 587.357 464.318 592.042C465.488 596.728 467.827 599.07 465.488 602.974C463.148 606.879 458.469 608.05 460.808 611.564C463.148 615.078 465.488 617.811 464.708 620.153C463.928 622.496 485.375 626.791 487.325 623.277C487.325 623.277 481.086 617.811 487.325 614.687C493.564 611.564 491.614 599.851 491.614 599.851C491.614 599.851 502.533 554.951 502.143 551.437C501.753 547.924 519.301 493.263 519.301 493.263C519.301 493.263 545.037 571.349 546.597 574.863C548.157 578.377 544.647 586.967 546.597 589.309C548.547 591.652 545.817 597.508 548.547 599.851C551.276 602.194 543.867 610.783 548.547 613.907C553.226 617.03 555.566 626.791 555.176 628.743C554.786 630.695 574.673 628.353 574.673 625.62C574.673 622.886 574.283 620.544 576.233 615.859C578.183 611.174 579.353 608.05 577.793 606.488C576.233 604.927 575.063 602.974 576.623 597.508C578.183 592.042 574.283 575.254 575.453 572.13C576.623 569.007 576.233 547.924 576.233 547.924C576.233 547.924 572.334 517.079 573.503 512.004C574.673 506.928 573.503 505.757 573.113 503.805C572.723 501.853 570.384 480.769 568.824 477.646C567.264 474.522 565.314 421.033 556.346 418.3C547.377 415.567 480.306 422.985 480.306 422.985Z" fill="#2F2E41"/>
<path d="M477.186 632.257C477.186 632.257 463.148 629.914 462.368 632.257C461.588 634.6 459.248 652.95 464.707 653.34C470.167 653.731 479.525 654.902 481.085 651.388C482.645 647.874 490.054 645.532 490.054 645.532C490.054 645.532 500.973 642.408 500.973 638.894C500.973 635.38 500.583 629.914 498.633 629.524C496.683 629.133 488.884 624.839 488.884 623.277C488.884 621.715 477.186 632.257 477.186 632.257Z" fill="#2F2E41"/>
<path d="M564.924 638.504C564.924 638.504 554.786 635.38 552.446 637.332C550.106 639.285 546.987 660.758 552.446 660.368C557.905 659.978 572.333 662.32 573.113 659.197C573.893 656.073 584.422 655.292 584.422 655.292C584.422 655.292 595.73 649.826 594.95 643.97C594.171 638.113 593.001 636.161 588.321 635.771C583.642 635.38 580.132 629.914 579.742 629.524C579.353 629.133 575.914 626.279 575.489 629.463C575.063 632.647 569.994 639.675 564.924 638.504Z" fill="#2F2E41"/>
<path d="M532.948 260.175C519.811 260.175 509.162 249.512 509.162 236.359C509.162 223.205 519.811 212.542 532.948 212.542C546.086 212.542 556.735 223.205 556.735 236.359C556.735 249.512 546.086 260.175 532.948 260.175Z" fill="#FBBEBE"/>
<path d="M512.281 241.825C512.281 241.825 510.722 267.984 504.872 270.326C499.023 272.669 534.508 272.669 534.508 272.669C534.508 272.669 534.898 256.271 539.968 252.366C545.037 248.462 512.281 241.825 512.281 241.825Z" fill="#FBBEBE"/>
<path d="M502.923 264.47C502.923 264.47 527.099 255.49 535.678 269.545C535.678 269.545 562.975 282.43 564.924 290.238C566.874 298.047 548.547 356.612 548.547 356.612C548.547 356.612 548.547 405.025 552.446 410.101C556.346 415.177 563.754 420.643 558.685 421.814C553.616 422.985 474.066 431.575 474.456 426.499C474.846 421.424 479.916 417.129 474.456 414.005C468.997 410.882 473.676 407.368 470.167 397.217C466.657 387.066 458.079 303.123 458.079 303.123C458.079 303.123 463.928 292.581 465.098 291.41C466.267 290.238 502.923 264.47 502.923 264.47Z" fill="#A81FD1"/>
<path d="M572.723 435.479C572.723 435.479 587.931 469.837 574.673 474.522C561.415 479.207 562.195 438.212 562.195 438.212L572.723 435.479Z" fill="#FBBEBE"/>
<path opacity="0.1" d="M555.956 287.505L562.195 291.41C562.195 291.41 572.333 352.707 571.164 361.297C569.994 369.886 575.843 418.3 573.893 422.204C571.944 426.109 571.164 426.89 571.164 429.232C571.164 431.575 576.623 440.164 573.113 441.726C569.604 443.288 556.736 446.021 556.736 441.726C556.736 437.431 559.075 431.575 554.786 428.842C550.496 426.109 547.377 408.539 547.377 408.539C547.377 408.539 545.427 390.579 543.477 387.065C541.528 383.552 538.798 370.667 538.798 365.201C538.798 359.735 534.119 337.481 536.848 326.158C539.578 314.836 540.358 284.382 555.956 287.505Z" fill="black"/>
<path d="M558.685 286.334L564.924 290.238C564.924 290.238 575.063 351.536 573.893 360.126C572.723 368.715 578.573 417.129 576.623 421.033C574.673 424.938 573.893 425.718 573.893 428.061C573.893 430.404 579.352 438.993 575.843 440.555C572.333 442.117 559.465 444.85 559.465 440.555C559.465 436.26 561.805 430.404 557.515 427.671C553.226 424.938 550.106 407.368 550.106 407.368C550.106 407.368 548.157 389.408 546.207 385.894C544.257 382.38 541.527 369.496 541.527 364.03C541.527 358.564 536.848 336.309 539.578 324.987C542.307 313.664 543.087 283.211 558.685 286.334Z" fill="#A81FD1"/>
<path d="M552.045 229.729C553.586 230.352 555.398 231.069 556.815 230.197C557.857 229.551 558.285 228.211 558.221 226.983C558.157 225.756 557.691 224.593 557.323 223.422C556.571 221.016 556.165 218.512 555.327 216.118C554.488 213.724 553.12 211.416 550.947 210.151C546.947 207.825 541.771 209.747 537.331 208.459C535.452 207.919 533.816 206.832 532.068 205.978C530.32 205.125 528.354 204.467 526.467 204.924C524.257 205.442 522.625 207.311 520.565 208.263C518.309 209.305 515.61 209.233 513.558 210.627C512.103 211.616 511.186 213.214 510.37 214.781C507.76 219.818 505.699 225.123 504.224 230.605C503.633 232.568 503.296 234.598 503.22 236.647C503.201 239.268 503.908 241.836 504.607 244.367L505.735 248.37C506.152 249.88 506.581 251.391 507.37 252.758C508.159 254.125 509.377 255.277 510.885 255.674C512.765 256.161 514.952 255.217 515.772 253.449C516.276 252.354 516.253 251.1 516.279 249.896C516.321 247.536 516.573 245.185 517.031 242.871C517.264 241.712 517.576 240.507 518.362 239.631C519.377 238.498 520.994 238.12 522.497 238.094C524.257 238.071 526.185 238.551 527.211 239.982C528.035 241.138 528.177 242.762 529.271 243.664C529.758 244.039 530.336 244.275 530.944 244.348C532.185 244.503 533.442 244.236 534.514 243.589C535.586 242.942 536.411 241.953 536.858 240.779C537.203 239.782 537.373 238.543 538.312 238.075C538.801 237.829 539.384 237.875 539.906 237.716C541.508 237.229 541.929 235.19 542.075 233.517C542.245 231.557 541.594 227.686 544.019 227.553C546.632 227.41 549.643 228.924 552.045 229.729Z" fill="#383326"/>
<path d="M545.109 253.482C545.955 253.881 546.881 254.349 547.212 255.208C547.342 255.545 547.365 255.915 547.483 256.258C548.02 257.779 550.115 258.078 551.197 259.289C551.685 259.901 552.014 260.621 552.154 261.386C552.876 264.402 552.643 267.563 551.483 270.445C551.147 271.358 550.629 272.196 549.959 272.911C548.024 274.847 544.686 274.81 542.275 273.49C539.863 272.171 538.198 269.858 536.785 267.511C536.036 266.33 535.409 265.078 534.914 263.774C534.48 262.448 534.17 261.085 533.988 259.704C533.143 254.319 532.038 248.347 532.419 242.887C533.562 242.816 535.745 242.737 536.754 243.44C538.019 244.322 537.669 246.101 538.126 247.39C539.208 250.492 542.347 252.129 545.109 253.482Z" fill="#383326"/>
<path d="M544.88 254.586C546.325 254.67 548.913 253.158 550.362 253.234C551.347 251.606 552.565 250.132 553.374 248.512C552.97 248.107 551.352 247.702 549.083 248.183C547.577 249.185 545.496 252.651 544.88 254.586Z" fill="#383326"/>
<path d="M400.5 599C406.851 599 412 593.851 412 587.5C412 581.149 406.851 576 400.5 576C394.149 576 389 581.149 389 587.5C389 593.851 394.149 599 400.5 599Z" fill="#FFE7AB"/>
<path d="M402 607H399V630H402V607Z" fill="#3F3D56"/>
<path d="M1096 668C1096 668 1097.26 644.488 1123 647.221L1096 668Z" fill="#3F3D56"/>
<path d="M1090.5 645C1096.85 645 1102 639.404 1102 632.5C1102 625.596 1096.85 620 1090.5 620C1084.15 620 1079 625.596 1079 632.5C1079 639.404 1084.15 645 1090.5 645Z" fill="#FFE7AB"/>
<path d="M1092 653H1089V677H1092V653Z" fill="#3F3D56"/>
</svg>
