<svg width="39" height="32" viewBox="0 0 39 32" fill="none" xmlns="http://www.w3.org/2000/svg">
<path d="M12.2647 32C26.9818 32 35.0314 19.6876 35.0314 9.01031C35.0314 8.66059 35.0314 8.31246 35.008 7.9659C36.5739 6.8221 37.9257 5.40587 39 3.78352C37.5397 4.43695 35.9905 4.86547 34.4042 5.05477C36.0746 4.04499 37.3248 2.45677 37.922 0.585691C36.3514 1.52685 34.633 2.19014 32.8411 2.54692C31.6347 1.25154 30.0391 0.393771 28.3013 0.106353C26.5635 -0.181066 24.7803 0.117889 23.2277 0.956954C21.6751 1.79602 20.4396 3.12842 19.7125 4.74797C18.9853 6.36751 18.807 8.18392 19.2052 9.9161C16.0239 9.75505 12.9118 8.92025 10.0708 7.46589C7.22979 6.01152 4.72343 3.9701 2.7144 1.47415C1.69118 3.2529 1.37779 5.35858 1.83804 7.36247C2.29828 9.36635 3.49756 11.1178 5.19168 12.2601C3.91832 12.222 2.67272 11.8751 1.56 11.2488C1.56 11.2819 1.56 11.3165 1.56 11.3512C1.56051 13.2167 2.20001 15.0245 3.37004 16.4682C4.54007 17.9118 6.1686 18.9023 7.9794 19.2717C6.8014 19.5961 5.56543 19.6435 4.36644 19.4103C4.87774 21.0158 5.87319 22.4198 7.21355 23.4259C8.55391 24.4319 10.1722 24.9898 11.842 25.0215C9.00859 27.2701 5.50845 28.4908 1.90476 28.4871C1.26813 28.4859 0.632118 28.447 0 28.3705C3.65919 30.7418 7.91686 31.9996 12.2647 31.9937" fill="white"/>
</svg>
